<svg width="16" height="16" viewBox="0 0 16 16" fill="none" xmlns="http://www.w3.org/2000/svg">
<path fill-rule="evenodd" clip-rule="evenodd" d="M13.0271 6.5192C13.0305 5.04453 12.532 3.61246 11.6133 2.45788C10.6945 1.3033 9.41011 0.494751 7.9707 0.164849C6.53129 -0.165053 5.02233 0.00327422 3.69132 0.64223C2.36031 1.28118 1.28627 2.35283 0.64535 3.6814C0.0044301 5.00997 -0.165306 6.51659 0.163968 7.95415C0.493243 9.3917 1.30199 10.6748 2.45755 11.5931C3.61312 12.5114 5.04689 13.0103 6.52372 13.008C8.00056 13.0057 9.43278 12.5023 10.5855 11.5805L14.7888 15.7853C14.8543 15.8532 14.933 15.9072 15.0199 15.9441C15.1069 15.981 15.2004 16 15.2948 16C15.3893 16 15.4828 15.981 15.5698 15.9441C15.6567 15.9072 15.7354 15.8532 15.8009 15.7853C15.9291 15.6435 16 15.4593 16 15.2684C16 15.0774 15.9291 14.8932 15.8009 14.7515L11.5977 10.5775C12.5181 9.42398 13.0217 7.99407 13.0271 6.5192ZM6.52898 11.565C5.52955 11.565 4.55257 11.2691 3.72157 10.7146C2.89057 10.1602 2.24288 9.37216 1.86042 8.45016C1.47795 7.52815 1.37788 6.51361 1.57286 5.53482C1.76784 4.55602 2.24911 3.65694 2.95582 2.95127C3.66252 2.2456 4.56293 1.76504 5.54316 1.57034C6.52339 1.37565 7.53941 1.47557 8.46276 1.85748C9.38612 2.23938 10.1753 2.88612 10.7306 3.7159C11.2858 4.54568 11.5822 5.52123 11.5822 6.5192C11.5781 7.86019 11.0412 9.14475 10.0894 10.0908C9.13765 11.0369 7.84876 11.5671 6.5058 11.565H6.52898Z" fill="#0A2A4C"/>
</svg>
